<?xml version="1.0" encoding="UTF-8"?>
<svg version="1.1" xmlns="http://www.w3.org/2000/svg" width="132" height="88">
<path d="M0 0 C5.40668693 4.18319096 9.36031424 9.78077633 10.46875 16.59765625 C10.5821875 17.56445312 10.695625 18.53125 10.8125 19.52734375 C11.26425934 23.33303078 11.26425934 23.33303078 13.68359375 26.0546875 C15.07124449 26.66588339 16.47763224 27.23605213 17.8984375 27.765625 C22.29701604 29.75234356 25.0789831 33.82251551 27.14453125 38.06640625 C29.03029131 43.90451273 28.83401663 50.42129802 26.75 56.15234375 C25.88375 57.42078125 25.88375 57.42078125 25 58.71484375 C24.443125 59.58109375 23.88625 60.44734375 23.3125 61.33984375 C19.16020579 65.60436212 14.92886608 67.43929145 9.0625 68.27734375 C3.32218275 67.99316963 -2.0100471 64.70479665 -6 60.71484375 C-8.32275177 60.31436931 -10.65739357 59.97513335 -13 59.71484375 C-11.824375 60.85953125 -11.824375 60.85953125 -10.625 62.02734375 C-8 64.71484375 -8 64.71484375 -6 67.71484375 C-9.96 67.71484375 -13.92 67.71484375 -18 67.71484375 C-18.09765625 58.4375 -18.09765625 58.4375 -18 55.71484375 C-16.25493385 53.9697776 -13.80960857 54.48201591 -11.43359375 54.3984375 C-10.30888672 54.35654297 -9.18417969 54.31464844 -8.02539062 54.27148438 C-6.84138672 54.23216797 -5.65738281 54.19285156 -4.4375 54.15234375 C-3.24962891 54.10916016 -2.06175781 54.06597656 -0.83789062 54.02148438 C2.10794784 53.91500829 5.0538743 53.81299534 8 53.71484375 C8 52.72484375 8 51.73484375 8 50.71484375 C-4.87 50.21984375 -4.87 50.21984375 -18 49.71484375 C-17.67 48.06484375 -17.34 46.41484375 -17 44.71484375 C-15.865625 44.57046875 -14.73125 44.42609375 -13.5625 44.27734375 C-10.19222799 44.10312897 -10.19222799 44.10312897 -9 42.71484375 C-8.91286169 41.00712017 -8.89299993 39.29585726 -8.90234375 37.5859375 C-8.90556641 36.55146484 -8.90878906 35.51699219 -8.91210938 34.45117188 C-8.92048828 33.36255859 -8.92886719 32.27394531 -8.9375 31.15234375 C-8.94201172 30.05986328 -8.94652344 28.96738281 -8.95117188 27.84179688 C-8.96300174 25.1327588 -8.97948457 22.42382776 -9 19.71484375 C-10.299375 19.57046875 -11.59875 19.42609375 -12.9375 19.27734375 C-16.875 18.83984375 -16.875 18.83984375 -18 17.71484375 C-18.04080783 15.71526011 -18.04254356 13.71439121 -18 11.71484375 C-19.98 11.71484375 -21.96 11.71484375 -24 11.71484375 C-24 14.02484375 -24 16.33484375 -24 18.71484375 C-26.97 19.04484375 -29.94 19.37484375 -33 19.71484375 C-33.02887236 23.52732801 -33.04675492 27.33978445 -33.0625 31.15234375 C-33.07506836 32.78526367 -33.07506836 32.78526367 -33.08789062 34.45117188 C-33.09111328 35.48564453 -33.09433594 36.52011719 -33.09765625 37.5859375 C-33.10289307 38.5442749 -33.10812988 39.5026123 -33.11352539 40.48999023 C-33.2505313 42.68769714 -33.2505313 42.68769714 -32 43.71484375 C-29.67182036 44.08245106 -27.3381615 44.41725956 -25 44.71484375 C-24.505 47.18984375 -24.505 47.18984375 -24 49.71484375 C-32.58 50.04484375 -41.16 50.37484375 -50 50.71484375 C-50 51.70484375 -50 52.69484375 -50 53.71484375 C-48.8718689 53.75242798 -48.8718689 53.75242798 -47.72094727 53.79077148 C-44.33460804 53.90634889 -40.94857387 54.0292472 -37.5625 54.15234375 C-35.78649414 54.21131836 -35.78649414 54.21131836 -33.97460938 54.27148438 C-32.28754883 54.33432617 -32.28754883 54.33432617 -30.56640625 54.3984375 C-29.00321655 54.45342407 -29.00321655 54.45342407 -27.40844727 54.50952148 C-25 54.71484375 -25 54.71484375 -24 55.71484375 C-23.85644883 59.71705028 -23.95783597 63.70926058 -24 67.71484375 C-27.96 67.71484375 -31.92 67.71484375 -36 67.71484375 C-35.21625 66.95171875 -34.4325 66.18859375 -33.625 65.40234375 C-30.92742283 62.8059257 -30.92742283 62.8059257 -29 59.71484375 C-34.40550931 60.13880526 -36.95086781 61.18483107 -41 64.71484375 C-45.57511207 67.4612507 -49.48678941 68.26522145 -54.75 68.21484375 C-55.45302246 68.20839844 -56.15604492 68.20195313 -56.88037109 68.1953125 C-64.08322492 67.94403093 -69.56722424 66.01587119 -74.83203125 60.953125 C-79.95482279 54.808268 -82.42756555 47.57791228 -81.9375 39.58984375 C-80.74025236 31.62066412 -77.45306476 26.26703274 -71.20703125 21.19140625 C-65.21437953 17.18216315 -59.08715813 16.13392915 -52 16.71484375 C-48.5 17.71484375 -48.5 17.71484375 -46 18.71484375 C-45.9071875 17.47734375 -45.9071875 17.47734375 -45.8125 16.21484375 C-43.94110998 8.15347136 -38.65015786 2.41345995 -32 -2.28515625 C-21.87327867 -8.24702559 -9.48770846 -6.09659391 0 0 Z M-50 19.71484375 C-50.3184833 22.09659093 -50.3184833 22.09659093 -50 24.71484375 C-48.38681643 26.39718101 -48.38681643 26.39718101 -46.1875 27.52734375 C-45.47980469 27.94628906 -44.77210937 28.36523438 -44.04296875 28.796875 C-41.91721334 29.91977224 -41.91721334 29.91977224 -39 29.71484375 C-39.10691236 27.29747539 -39.10691236 27.29747539 -40 24.71484375 C-42.27789958 23.03226552 -42.27789958 23.03226552 -45.0625 21.90234375 C-45.98160156 21.48339844 -46.90070312 21.06445312 -47.84765625 20.6328125 C-48.55792969 20.32988281 -49.26820312 20.02695312 -50 19.71484375 Z M-2 24.71484375 C-3.04510361 27.33587372 -3.04510361 27.33587372 -3 29.71484375 C1.50931237 29.18433641 4.48681339 27.57441425 8 24.71484375 C8 23.39484375 8 22.07484375 8 20.71484375 C3.99496016 20.71484375 1.0698187 22.24478397 -2 24.71484375 Z M-3 35.71484375 C-3.13478935 38.59350631 -3.13478935 38.59350631 -2 41.71484375 C0.95785914 43.86010423 4.29256965 45.71484375 8 45.71484375 C7.89308764 43.29747539 7.89308764 43.29747539 7 40.71484375 C4.72210042 39.03226552 4.72210042 39.03226552 1.9375 37.90234375 C1.01839844 37.48339844 0.09929687 37.06445312 -0.84765625 36.6328125 C-1.55792969 36.32988281 -2.26820312 36.02695312 -3 35.71484375 Z M-44.5 37.90234375 C-45.3146875 38.30839844 -46.129375 38.71445312 -46.96875 39.1328125 C-49.24626447 40.58840468 -49.24626447 40.58840468 -49.78125 43.390625 C-49.8534375 44.15761719 -49.925625 44.92460938 -50 45.71484375 C-47.99105606 45.07563432 -45.99220557 44.40445337 -44 43.71484375 C-42.8553125 43.34359375 -42.8553125 43.34359375 -41.6875 42.96484375 C-39.65127799 41.73636757 -39.65127799 41.73636757 -39.25 38.58984375 C-39.1675 37.64109375 -39.085 36.69234375 -39 35.71484375 C-40.98536727 35.71484375 -42.77913048 37.01740294 -44.5 37.90234375 Z " fill="#00A1E0" transform="translate(90,14.28515625)"/>
<path d="M0 0 C4.62 0 9.24 0 14 0 C14 1.98 14 3.96 14 6 C13 7 13 7 10.3125 7.1328125 C9.219375 7.13023438 8.12625 7.12765625 7 7.125 C5.906875 7.12757812 4.81375 7.13015625 3.6875 7.1328125 C1 7 1 7 0 6 C0 4.02 0 2.04 0 0 Z " fill="#00A0DF" transform="translate(62,48)"/>
<path d="M0 0 C1.093125 0.00257812 2.18625 0.00515625 3.3125 0.0078125 C4.405625 0.00523438 5.49875 0.00265625 6.625 0 C9.3125 0.1328125 9.3125 0.1328125 10.3125 1.1328125 C10.3125 3.1128125 10.3125 5.0928125 10.3125 7.1328125 C5.6925 7.1328125 1.0725 7.1328125 -3.6875 7.1328125 C-3.6875 0.1822311 -3.6875 0.1822311 0 0 Z " fill="#00A0DF" transform="translate(65.6875,36.8671875)"/>
</svg>
