<svg xmlns="http://www.w3.org/2000/svg" width="169.976" height="13" viewBox="0 0 169.976 13">
  <g id="PHONEAPPLI_liner" transform="translate(-0.988 -0.882)">
    <path id="Path_541238" data-name="Path 541238" d="M477.868,14.643V2.01H478.9V13.723h5.947v.921Z" transform="translate(-351.408 -0.831)" fill="#1d1c1d"/>
    <path id="Path_541239" data-name="Path 541239" d="M540.2,14.643h-1.1L531.742,3.6h-.054c.025.46.039.945.054,1.459s.019,1.052.019,1.619v7.962H530.8V2.01h1.1l7.337,11.005h.073c-.025-.363-.044-.834-.054-1.405s-.019-1.1-.019-1.585V2.01h.961Z" transform="translate(-390.413 -0.831)" fill="#1d1c1d"/>
    <path id="Path_541240" data-name="Path 541240" d="M584.281,14.643H577.3V2.01h6.981V2.93h-5.947V7.568h5.61v.9h-5.61v5.253h5.947Z" transform="translate(-424.678 -0.831)" fill="#1d1c1d"/>
    <path id="Path_541241" data-name="Path 541241" d="M617.742,2a6.056,6.056,0,0,1,3.429.795,3.011,3.011,0,0,1,1.146,2.67,3.142,3.142,0,0,1-.776,2.263,4.4,4.4,0,0,1-1.932,1.168l3.493,5.733h-1.229L618.63,9.178H615.6v5.447h-1.034V1.991h3.171Zm-.088.921h-2.049V8.3h2.4a3.568,3.568,0,0,0,2.4-.727A2.571,2.571,0,0,0,621.25,5.5a2.2,2.2,0,0,0-.883-2.016,5.127,5.127,0,0,0-2.717-.567Z" transform="translate(-452.14 -0.817)" fill="#1d1c1d"/>
    <path id="Path_541242" data-name="Path 541242" d="M514.819,14.82V2.249h1.029V14.82Z" transform="translate(-378.636 -1.008)" fill="#1d1c1d"/>
    <path id="Path_541243" data-name="Path 541243" d="M9.71,5.584A3.863,3.863,0,0,1,8.438,8.7,5.449,5.449,0,0,1,4.814,9.785H3.665v4.49H.988V1.646H5.025a5.369,5.369,0,0,1,3.5.988,3.6,3.6,0,0,1,1.194,2.95m-5.164,2A2.935,2.935,0,0,0,6.4,7.1a1.711,1.711,0,0,0,.613-1.421A1.748,1.748,0,0,0,6.5,4.287a2.41,2.41,0,0,0-1.611-.448H3.665V7.587Z" transform="translate(0 -0.563)" fill="#1d1c1d"/>
    <path id="Path_541244" data-name="Path 541244" d="M51.078,14.276H48.406V8.823h-5v5.452H40.73V1.646h2.677V6.594h5V1.646h2.672Z" transform="translate(-29.285 -0.563)" fill="#1d1c1d"/>
    <path id="Path_541245" data-name="Path 541245" d="M99.7,7.379A6.856,6.856,0,0,1,98.146,12.2a6.745,6.745,0,0,1-8.917,0,6.886,6.886,0,0,1-1.555-4.84,6.77,6.77,0,0,1,1.56-4.814A5.834,5.834,0,0,1,93.7.882a5.77,5.77,0,0,1,4.454,1.673A6.862,6.862,0,0,1,99.7,7.374m-9.216,0a5.278,5.278,0,0,0,.8,3.187,2.812,2.812,0,0,0,2.4,1.071q3.205,0,3.2-4.258c0-2.837-1.06-4.268-3.187-4.268A2.832,2.832,0,0,0,91.3,4.182,5.257,5.257,0,0,0,90.485,7.374Z" transform="translate(-63.877)" fill="#1d1c1d"/>
    <path id="Path_541246" data-name="Path 541246" d="M152.218,14.262h-3.4l-5.493-9.556h-.077q.162,2.533.165,3.609v5.941h-2.394V1.627h3.377l5.483,9.458h.062q-.131-2.464-.129-3.48V1.627h2.41Z" transform="translate(-103.184 -0.549)" fill="#1d1c1d"/>
    <path id="Path_541247" data-name="Path 541247" d="M200.008,14.276h-7.275V1.646h7.275V3.839h-4.593V6.614h4.273V8.808h-4.273v3.254h4.593Z" transform="translate(-141.295 -0.563)" fill="#1d1c1d"/>
    <path id="Path_541248" data-name="Path 541248" d="M261.363,14.132l-.916-3.007h-4.6l-.917,3.007h-2.883L256.5,1.451h3.275l4.474,12.681Zm-1.555-5.252q-1.266-4.085-1.431-4.623c-.108-.355-.18-.638-.227-.844q-.286,1.1-1.632,5.468Z" transform="translate(-185 -0.42)" fill="#1d1c1d"/>
    <path id="Path_541249" data-name="Path 541249" d="M314.01,5.585a3.863,3.863,0,0,1-1.272,3.12,5.45,5.45,0,0,1-3.625,1.081h-1.148v4.49h-2.677V1.646h4.036a5.369,5.369,0,0,1,3.5.988,3.6,3.6,0,0,1,1.195,2.95m-5.164,2A2.935,2.935,0,0,0,310.7,7.1a1.711,1.711,0,0,0,.613-1.421,1.748,1.748,0,0,0-.515-1.39,2.409,2.409,0,0,0-1.611-.448h-1.22V7.588Z" transform="translate(-224.235 -0.563)" fill="#1d1c1d"/>
    <path id="Path_541250" data-name="Path 541250" d="M354.339,5.585a3.863,3.863,0,0,1-1.272,3.12,5.449,5.449,0,0,1-3.625,1.081h-1.148v4.49h-2.677V1.646h4.036a5.369,5.369,0,0,1,3.5.988,3.6,3.6,0,0,1,1.195,2.95m-5.164,2a2.935,2.935,0,0,0,1.848-.489,1.711,1.711,0,0,0,.613-1.421,1.748,1.748,0,0,0-.515-1.39,2.41,2.41,0,0,0-1.612-.448h-1.22V7.588Z" transform="translate(-253.953 -0.563)" fill="#1d1c1d"/>
    <path id="Path_541251" data-name="Path 541251" d="M386.573,14.276V1.646h2.677V12.062h5.123v2.214Z" transform="translate(-284.133 -0.563)" fill="#1d1c1d"/>
    <path id="Path_541252" data-name="Path 541252" d="M426.066,1.646H423.4V14.276h2.667Z" transform="translate(-311.27 -0.563)" fill="#1d1c1d"/>
  </g>
</svg>
