<svg xmlns="http://www.w3.org/2000/svg" xmlns:xlink="http://www.w3.org/1999/xlink" width="227.613" height="77.136" viewBox="0 0 227.613 77.136">
  <defs>
    <clipPath id="clip-path">
      <rect id="長方形_2" data-name="長方形 2" width="227.613" height="53.078"/>
    </clipPath>
  </defs>
  <g id="グループ_333" data-name="グループ 333" transform="translate(-26 -18.864)">
    <g id="グループ_4" data-name="グループ 4" transform="translate(26 18.864)">
      <g id="グループ_3" data-name="グループ 3" clip-path="url(#clip-path)">
        <path id="パス_14" data-name="パス 14" d="M901.419,5.924V55.831h7.923s0-45.5,0-52.313a41.39,41.39,0,0,0-7.922,2.406" transform="translate(-705.49 -2.753)"/>
        <path id="パス_15" data-name="パス 15" d="M963.992.191c-1.3-.124-2.623-.191-3.96-.191s-2.657.067-3.962.194c0,5.892,0,52.883,0,52.883h7.923s0-48.681,0-52.887" transform="translate(-748.262 0)"/>
        <path id="パス_16" data-name="パス 16" d="M1018.645,5.924a41.4,41.4,0,0,0-7.923-2.406c0,3.4,0,52.313,0,52.313h7.927Z" transform="translate(-791.033 -2.753)"/>
        <path id="パス_17" data-name="パス 17" d="M400.06,208.146l-.194-.68a4.161,4.161,0,0,0,2.265-.916,2.861,2.861,0,0,0,.766-2.179v-1.121h-4.055v-.658h9.038v.658H404.4v.97a3.731,3.731,0,0,1-.712,2.439,5.075,5.075,0,0,1-3.624,1.488m-.658-8.336h6.74v.658H399.4Zm7.053.711a10.5,10.5,0,0,0-.486-1.962l.561-.043a5.507,5.507,0,0,1,.754,1.908Zm1.51-.118a10.4,10.4,0,0,0-.486-1.963l.561-.043a5.539,5.539,0,0,1,.755,1.909Z" transform="translate(-312.151 -155.273)"/>
        <path id="パス_18" data-name="パス 18" d="M451.279,210.95l.011-4.326a15.358,15.358,0,0,1-4.411.981l-.043-.7a10.184,10.184,0,0,0,4.659-1.769,8.5,8.5,0,0,0,1.208-1.057,8.829,8.829,0,0,0,1.381-2.114l1.542.205a8.879,8.879,0,0,1-2.869,3.667v5.113Z" transform="translate(-349.713 -158.067)"/>
        <path id="パス_19" data-name="パス 19" d="M496.952,213.114l-.1-.723a9.436,9.436,0,0,0,4.023-.884,4.564,4.564,0,0,0,.895-.7,2.585,2.585,0,0,0,.6-1.089,4.031,4.031,0,0,0,.194-1.37.459.459,0,0,0-.518-.507l-6.223.011.011-.7,7.074-.032a1.458,1.458,0,0,1,.82.226,1,1,0,0,1,.431.971,4.948,4.948,0,0,1-1.122,3.084,5.185,5.185,0,0,1-2.512,1.316,17.044,17.044,0,0,1-3.581.4m-.928-7.669v-.679l7.83-.022v.681Z" transform="translate(-388.058 -160.242)"/>
        <path id="パス_20" data-name="パス 20" d="M546.658,210.95l.011-4.326a15.352,15.352,0,0,1-4.411.981l-.044-.7a10.192,10.192,0,0,0,4.66-1.769,8.531,8.531,0,0,0,1.208-1.057,8.8,8.8,0,0,0,1.38-2.114l1.542.205a8.877,8.877,0,0,1-2.868,3.667v5.113Z" transform="translate(-424.361 -158.067)"/>
        <path id="パス_21" data-name="パス 21" d="M599.657,206.288A7.742,7.742,0,0,1,598.4,210.6a6,6,0,0,1-3.807,2.016,18.683,18.683,0,0,1-2.459.281l-.141-.755a10.742,10.742,0,0,0,3.052-.6,4.644,4.644,0,0,0,1.726-1.133,6.712,6.712,0,0,0,1.327-4.518.472.472,0,0,0-.162-.41.626.626,0,0,0-.409-.14h-5.813v-.69l6.751.011a1.043,1.043,0,0,1,1.208,1.186c0,.114,0,.262-.011.442" transform="translate(-463.097 -160.167)"/>
        <path id="パス_22" data-name="パス 22" d="M637.9,206.106a8.758,8.758,0,0,1-.993,1.456l-.5-.378a8.1,8.1,0,0,0,.928-1.963,9.217,9.217,0,0,0,.507-2.049H636.72v-.625H637.9v-2.081h1.294v2.081h.83v.625h-.83v.615a7.465,7.465,0,0,0,1.067,1.456l-.517.679a2.9,2.9,0,0,1-.55-.8v4.7H637.9Zm4.745.938a10.878,10.878,0,0,1-2.254,2.114l-.518-.583a8.807,8.807,0,0,0,1.408-1.563,8.544,8.544,0,0,0,1.052-1.866H640.28v-.626h2.34v-1.876h-.862a6.275,6.275,0,0,1-.895,1.5l-.712-.334a7.987,7.987,0,0,0,.852-3.171l1.305.119a6.547,6.547,0,0,1-.3,1.262h.615v-1.641h1.435v1.641H646.2v.625h-2.146v1.876h2.4v.626h-2.254a6.531,6.531,0,0,0,2.707,2.836l-.981,1.078a7.939,7.939,0,0,1-1.909-2.469v3.16h-1.38Z" transform="translate(-498.081 -156.825)"/>
        <path id="パス_23" data-name="パス 23" d="M700.617,202.413v.658h-3.128a15.164,15.164,0,0,0,.291,2.482,5.57,5.57,0,0,0,1.284,2.771.129.129,0,0,0,.1.032c.173,0,.266-.075.281-.226q.064-.453.161-1.855l1.09.2a21.915,21.915,0,0,1-.184,2.362.9.9,0,0,1-.378.695,1.35,1.35,0,0,1-.819.254,1.556,1.556,0,0,1-1.2-.518,6.869,6.869,0,0,1-1.4-2.211,12.192,12.192,0,0,1-.668-3.709l-.011-.281h-5.22v-.658h5.2v-1.984h1.478l-.01,1.984h1.434a7.819,7.819,0,0,0-1.24-1.455l.518-.507a5.706,5.706,0,0,1,2.028,1.411l-.831.55Zm-4.606,2.049v.647h-1.531V208c.834-.073,1.556-.151,2.167-.238v.906q-.906.184-2.869.475-1.9.279-2.718.356l-.215-1.273c.432-.022,1.154-.061,2.168-.119v-3h-1.779v-.647Z" transform="translate(-540.661 -156.865)"/>
        <path id="パス_24" data-name="パス 24" d="M749.818,203.657v.507h-5.845v-.41a13.358,13.358,0,0,1-1.855.766l-.345-.647a7.636,7.636,0,0,0,2.432-1.516,8.315,8.315,0,0,0,1.861-2.227h1.412a6.2,6.2,0,0,0,1.963,1.792,11.043,11.043,0,0,0,2.728,1.251l-.9,1.229a9.177,9.177,0,0,1-1.456-.744m1.726,1.941v.625h-5a15.245,15.245,0,0,1-1.586,2.06q2.394-.065,3.937-.194-.594-.787-1.079-1.316l.744-.42a16.014,16.014,0,0,1,1.586,1.283,10.262,10.262,0,0,1,1.326,1.4l-1.488.6q-.248-.377-.529-.777-3.569.508-6.87.669l-.215-1.2q.614,0,1.381-.021a17.737,17.737,0,0,0,1.186-2.094h-2.718V205.6Zm-7.161-2.071h5.241a8.013,8.013,0,0,1-2.524-2.383,9.238,9.238,0,0,1-2.718,2.383" transform="translate(-580.544 -156.63)"/>
        <path id="パス_25" data-name="パス 25" d="M796.924,210.063h-1.348v-3.83a8.768,8.768,0,0,1-1.251.831l-.356-.583a8.386,8.386,0,0,0,1.769-1.822,5.813,5.813,0,0,0,1.013-1.878H794.26v-.6H795.6v-1.6h1.359v1.6h1.24l.238.194a6.226,6.226,0,0,1-1.338,2.458q.529.443,1.435,1.208l-.711.809q-.432-.594-.9-1.122Zm7-6.655v.647H801.81v4.907H804.2v.658h-6.438v-.658h2.577v-4.907h-2.081v-.647h2.081v-2.825h1.467v2.825Z" transform="translate(-621.395 -156.985)"/>
        <path id="パス_26" data-name="パス 26" d="M12.336,45.493c5.1,0,9.21,1.028,11.952,3.6a12.287,12.287,0,0,1,3.726,9.08c0,10.581-8.1,15.165-18.163,15.165H0v-.986c3.684-.258,4.027-.556,4.027-5.225V51.7c0-4.669-.343-4.969-3.685-5.226v-.985ZM7.624,67.854c0,1.97.129,2.827.728,3.341a4.849,4.849,0,0,0,3.041.728c9,0,12.465-6.211,12.465-12.636,0-4.326-.943-8.911-5.225-11.138-1.671-.9-4.113-1.413-7.539-1.413a9.4,9.4,0,0,0-3.084.258c-.258.085-.386.342-.386,1.2Z" transform="translate(0 -35.605)"/>
        <path id="パス_27" data-name="パス 27" d="M156.213,105.313c-1.456-.257-2.1-1.714-2.356-2.784-1.8,1.156-4.113,2.784-5.012,2.784a5.082,5.082,0,0,1-5.14-4.926c0-1.971,1.027-3.427,3.256-4.326,2.1-.857,5.61-2.1,6.9-3V91.606c0-2.657-1.243-4.07-3.513-4.07-2.1,0-3,1.8-3.469,3.6a1,1,0,0,1-.985.814c-.685,0-1.843-.685-1.843-1.456,0-.556.515-1.156,1.456-1.842a16.768,16.768,0,0,1,6.6-2.956,5.972,5.972,0,0,1,3.385,1.029,4.785,4.785,0,0,1,1.628,4.156v9.637c0,1.585.556,2.313,1.2,2.313a4.872,4.872,0,0,0,1.843-.556l.385.943Zm-2.356-10.88c-.943.386-3.513,1.542-4.327,1.971-1.5.814-2.227,1.671-2.227,3.213a3.024,3.024,0,0,0,2.827,3.341,7.484,7.484,0,0,0,3.728-1.671Z" transform="translate(-112.47 -67.068)"/>
        <path id="パス_28" data-name="パス 28" d="M227.779,89.049l-1.286.171c-.941.129-.9.814-.471,2.013l3.726,10.538c1.072-2.4,3.683-9.167,4.2-10.666.471-1.328.385-1.714-.6-1.842l-1.585-.214v-.985H239.3v.985c-2.313.428-2.356.6-3.684,3.127-1.157,2.142-2.7,5.654-5.44,12.122-2.828,6.682-3.941,9.381-4.583,11.651a1.307,1.307,0,0,1-1.329,1.07,2.216,2.216,0,0,1-2.141-1.97c.043-.6.514-.986,1.2-1.5a9.708,9.708,0,0,0,2.955-3.726c.6-1.286,1.156-2.613,1.327-3.127a2.294,2.294,0,0,0-.043-1.414c-1.456-4.541-3.469-9.766-4.712-13.065-.986-2.655-1.113-2.87-3.769-3.169v-.985h8.7Z" transform="translate(-171.464 -68.923)"/>
        <path id="パス_29" data-name="パス 29" d="M314.754,38.81c0-2.527-.086-2.57-3.041-2.784v-.857c2.055-.386,4.841-1.072,6.383-1.5V60.228c0,2.4.215,2.612,3.127,2.87v.986h-9.6V63.1c2.913-.258,3.127-.471,3.127-2.87Z" transform="translate(-243.893 -26.352)"/>
        <path id="パス_30" data-name="パス 30" d="M374.057,64.548c0,2.4.215,2.612,3.084,2.87V68.4h-9.467v-.986c2.826-.258,3.041-.471,3.041-2.87v-9.9c0-2.57-.086-2.613-2.912-2.956v-.771a51.08,51.08,0,0,0,6.254-1.713Zm.556-23a2.259,2.259,0,0,1-2.227,2.313,2.337,2.337,0,1,1,2.227-2.313" transform="translate(-287.758 -30.671)"/>
        <path id="パス_31" data-name="パス 31" d="M428.462,47.12V60.228c0,2.356.215,2.57,3.812,2.87v.986h-9.98V63.1c2.612-.3,2.827-.513,2.827-2.87V47.12h-3.041l-.172-.428,1.2-1.2h2.013V44.85a13.35,13.35,0,0,1,.429-3.855,10.377,10.377,0,0,1,3.211-5.055,9.286,9.286,0,0,1,5.1-2.27,5.128,5.128,0,0,1,3.213,1.585.945.945,0,0,1,.172,1.2,3.768,3.768,0,0,1-.814,1.072c-.515.428-.857.385-1.243.043a5.556,5.556,0,0,0-3.64-1.757,2.431,2.431,0,0,0-1.885,1.157c-.6.771-1.242,3.084-1.2,6.725v1.8h5.311a1.45,1.45,0,0,1-.428,1.627Z" transform="translate(-330.204 -26.352)"/>
        <path id="パス_32" data-name="パス 32" d="M494.4,101.116c-2.356,3.341-5.311,4.2-6.469,4.2-5.44,0-8.7-4.07-8.7-9.038,0-5.741,4.027-10.581,9.166-10.581a6.364,6.364,0,0,1,6.127,5.955c0,1.327-.129,1.413-.9,1.585-.6.128-5.912.556-11.224.728-.129,6.382,3.9,8.609,6.982,8.609,1.413,0,2.7-.514,4.412-2.056Zm-4.284-8.824c.6,0,.771-.215.771-1.371a3.759,3.759,0,0,0-3.6-3.769c-2.057,0-4.284,2.1-4.626,5.269Z" transform="translate(-375.069 -67.069)"/>
        <path id="パス_33" data-name="パス 33" d="M566.519,154.683a2.55,2.55,0,1,1,2.528,2.613,2.489,2.489,0,0,1-2.528-2.613" transform="translate(-443.383 -119.05)"/>
        <path id="パス_34" data-name="パス 34" d="M613.048,64.548c0,2.4.213,2.612,3.084,2.87V68.4h-9.467v-.986c2.827-.258,3.041-.471,3.041-2.87v-9.9c0-2.57-.086-2.613-2.912-2.956v-.771a51.163,51.163,0,0,0,6.254-1.713Zm.556-23a2.259,2.259,0,0,1-2.227,2.313,2.337,2.337,0,1,1,2.227-2.313" transform="translate(-474.803 -30.671)"/>
        <path id="パス_35" data-name="パス 35" d="M668.433,88.515c.814-.6,1.757-1.2,2.871-1.884a6.9,6.9,0,0,1,3.683-1.243c3.512,0,5.44,2.314,5.44,5.7v9.553c0,2.4.215,2.612,2.7,2.87v.986h-9.081v-.986c2.828-.258,3.041-.471,3.041-2.87V92.413c0-2.484-.814-4.626-3.984-4.626a7.554,7.554,0,0,0-4.669,2.014v10.837c0,2.4.215,2.612,2.742,2.87v.986h-9.252v-.986c2.955-.258,3.17-.471,3.17-2.87v-9.9c0-2.57-.086-2.613-2.914-2.956v-.771a51,51,0,0,0,6.254-1.713Z" transform="translate(-518.05 -66.762)"/>
        <path id="パス_36" data-name="パス 36" d="M784.3,100.688c-1.755,2.656-4.455,4.626-6.9,4.626a8.781,8.781,0,0,1-8.866-9.038,10.369,10.369,0,0,1,3.9-8.011,11.589,11.589,0,0,1,6.982-2.571,7.048,7.048,0,0,1,3.769,1.157,1.1,1.1,0,0,1,.428.943c0,.942-.857,1.884-1.413,1.884a.923.923,0,0,1-.642-.3,6.235,6.235,0,0,0-4.455-1.842c-2.1,0-5.141,1.885-5.141,6.81,0,6.469,4.583,8.182,6.683,8.182,1.884,0,2.827-.429,5.1-2.4Z" transform="translate(-601.492 -67.069)"/>
      </g>
    </g>
    <text id="新卒採用サイト" transform="translate(26 94)" font-size="14" font-family="HiraginoSans-W3, Hiragino Sans" letter-spacing="0.05em"><tspan x="0" y="0">新卒採用サイト</tspan></text>
  </g>
</svg>
