<?xml version="1.0" encoding="UTF-8"?><svg id="_レイヤー_2" xmlns="http://www.w3.org/2000/svg" xmlns:xlink="http://www.w3.org/1999/xlink" viewBox="0 0 693.71 86"><defs><style>.cls-1{fill:#ea0029;}.cls-2{fill:#fff;}</style><symbol id="logoW2" viewBox="0 0 693.71 86"><g><g><path class="cls-2" d="M372.7,10.12c8.52,0,16.3,3.16,22.19,8.36l6.65-7.38c-7.63-6.9-17.74-11.1-28.84-11.1-23.75,0-43,19.25-43,43s19.25,43,43,43c7.02,0,13.64-1.68,19.49-4.67,5.43-2.77,9.15-8.41,9.17-14.91h.02v-27.64h-24.32l-4.33,9.27h18.11v18.61c-.04,2.58-1.51,4.83-3.66,5.95-4.3,2.25-9.29,3.27-14.48,3.27-18.39,0-33.3-14.72-33.3-32.88s14.9-32.88,33.3-32.88Z"/><path class="cls-2" d="M278.47,0c-23.75,0-43,19.25-43,43s19.25,43,43,43,43-19.25,43-43S302.22,0,278.47,0Zm0,75.88c-18.39,0-33.3-14.72-33.3-32.88s14.9-32.88,33.3-32.88,33.3,14.72,33.3,32.88-14.91,32.88-33.3,32.88Z"/><path class="cls-2" d="M161.65,10.12l4.32-9.27h-31.69c-8.26,.02-14.96,6.72-14.96,14.99h0V85.16h10.54V48.07h31.03l4.32-9.28h-35.35V15.36h0c0-2.89,2.34-5.23,5.23-5.23v-.17s0,.16,0,.16h26.55Z"/><path class="cls-2" d="M229.05,24.45c0-13.04-10.57-23.61-23.6-23.61h-30.31V85.16h10.54V10.12h18.93c7.92,0,14.33,6.42,14.33,14.33s-6.42,14.33-14.33,14.33h-9.2l-4.32,9.27h10.82l24.6,37.1h11.64l-25.37-38.26c9.45-3.08,16.28-11.96,16.28-22.44Z"/><path class="cls-2" d="M604.68,68.6V2.5s-15.28,0-15.28,0V67.49c0,9.7,7.87,17.63,17.57,17.63h24.52l6.64-14.25h-31.16c-1.25,0-2.29-1.02-2.29-2.27Z"/><path class="cls-2" d="M662.55,70.87c-1.26,0-2.29-1.02-2.29-2.27V2.5s-15.28,0-15.28,0V67.49c0,9.7,7.87,17.63,17.57,17.63h24.52l6.65-14.25h-31.16Z"/><path class="cls-2" d="M541.11,68.6v-18.98h28.65l6.17-13.23h-34.81V19.03c0-1.26,1.04-2.28,2.29-2.28h27.36l6.65-14.25h-33.8c-9.69,0-17.57,7.94-17.57,17.63v47.36c0,9.7,7.88,17.63,17.57,17.63h27.99l6.64-14.25h-34.83c-1.25,0-2.29-1.02-2.29-2.27Z"/><path class="cls-2" d="M490.27,62.74c-.08,.23-.29,.4-.55,.4-.28,0-.51-.2-.57-.45l-12.27-51.13c-1.29-5.39-6.14-9.6-11.93-9.6s-10.63,4.21-11.93,9.59l-12.28,51.2c-.08,.24-.3,.4-.55,.4-.28,0-.51-.2-.57-.45l-14.43-60.09-15.94-.04,19.02,73.56c1.35,5.3,6.16,9.64,11.89,9.64s10.53-4.12,11.94-9.34c0,0,12.27-51.47,12.27-51.48,.06-.26,.29-.45,.57-.45s.51,.2,.57,.46l12.55,51.34c1.13,5.35,5.94,9.47,11.66,9.47s10.54-4.34,11.89-9.64L520.65,2.56h-16.36l-14.02,60.18Z"/></g><g><path class="cls-2" d="M86,85.42c0,.32-.26,.58-.57,.58H.57c-.32,0-.57-.26-.57-.58V.57C0,.26,.26,0,.57,0H85.42c.32,0,.57,.26,.57,.57V85.42Z"/><path class="cls-1" d="M70.63,42.08l-14.87,20.09c-.91,1.28-2.57,3.35-3.58,4.53-2.55,2.98-5.43,4.6-9.18,4.6s-6.63-1.62-9.18-4.6c-1.01-1.18-2.66-3.25-3.58-4.53l-14.87-20.09c-1.04-1.2-1.89-1.45-2.9-1.31-1.31,.17-2.76-.14-3.76-1.14-1.55-1.56-1.55-4.08,0-5.63,1.55-1.56,4.08-1.56,5.63,0,1,1,1.31,2.45,1.14,3.76-.13,1,.12,1.85,1.32,2.89l18.08,14.98c.13,.11,.3,.19,.49,.19,.41,0,.73-.32,.73-.74,0-.05,0-.09-.01-.14l-3.94-23.18c-.31-1.56-.91-2.2-1.85-2.59-1.22-.5-2.32-1.49-2.68-2.86-.57-2.12,.69-4.31,2.81-4.88,2.12-.57,4.31,.69,4.88,2.82,.37,1.37-.09,2.78-.89,3.82-.62,.81-.82,1.67-.31,3.17l8.2,22.1c.1,.28,.37,.48,.69,.48s.59-.2,.69-.48l8.2-22.1c.51-1.5,.31-2.36-.31-3.17-.81-1.04-1.26-2.45-.89-3.82,.57-2.12,2.75-3.38,4.88-2.81,2.12,.57,3.38,2.75,2.82,4.88-.37,1.37-1.47,2.36-2.69,2.86-.94,.39-1.54,1.03-1.85,2.59l-3.94,23.18s-.01,.09-.01,.13c0,.41,.33,.74,.73,.74,.19,0,.36-.07,.49-.19l18.08-14.98c1.19-1.04,1.45-1.89,1.31-2.89-.17-1.31,.14-2.76,1.14-3.76,1.56-1.56,4.07-1.56,5.63,0,1.56,1.55,1.56,4.07,0,5.63-1,1-2.45,1.31-3.76,1.14-1.01-.13-1.85,.12-2.89,1.31Z"/></g></g></symbol></defs><g id="header"><g id="catch"><use width="693.71" height="86" xlink:href="#logoW2"/></g></g></svg>