<svg xmlns="http://www.w3.org/2000/svg" viewBox="0 0 247.13 37.73" width="248" height="38"><defs><style>.cls-1{fill:#464646}.cls-3{fill:#020b21}</style></defs><g id="レイヤー_2" data-name="レイヤー 2"><g id="nav"><path class="cls-1" d="M82.26 30.65a12.11 12.11 0 0 1 3.68-.65 3.49 3.49 0 0 1 2 .47A2.45 2.45 0 0 1 89 32.49a3.32 3.32 0 0 1-2 3 9.61 9.61 0 0 1-2.51.8 5.87 5.87 0 0 1-.61.09.18.18 0 0 1-.19-.13 1.57 1.57 0 0 0-.39-.54 9.09 9.09 0 0 0 3.15-.83 2.67 2.67 0 0 0 1.7-2.39 1.88 1.88 0 0 0-2.1-1.9 10.28 10.28 0 0 0-3.57.76 7.35 7.35 0 0 0-1.59.74h-.1c-.07 0-.19-.12-.31-.31a3 3 0 0 1-.29-.65 10.36 10.36 0 0 0 2.07-.48zM100 34.34a.15.15 0 0 1 .08.14 1.41 1.41 0 0 1-.19.45c-.1.19-.19.28-.27.28a.09.09 0 0 1-.08 0 5.42 5.42 0 0 0-2.75-.68c-1.3 0-2 .38-2 1s1.18 1.31 3 1.31c.27 0 .51 0 1-.05a2.76 2.76 0 0 0-.25.62c-.05.16-.09.18-.49.18-2.58 0-4-.73-4-2 0-1.07.95-1.67 2.66-1.67a6.21 6.21 0 0 1 2.42.47 9.27 9.27 0 0 1-1.57-1.95 16.59 16.59 0 0 1-3.45.42c-.19 0-.21 0-.28-.65a15.09 15.09 0 0 0 3.4-.36 12.42 12.42 0 0 1-.58-1.26 20.3 20.3 0 0 1-2.69.3c-.09 0-.11 0-.14-.17a2.58 2.58 0 0 1-.06-.46 16.73 16.73 0 0 0 2.62-.26l-.2-.63a3.1 3.1 0 0 0-.33-.78 4.25 4.25 0 0 1 .82-.1c.13 0 .18 0 .18.14v.17a4.46 4.46 0 0 0 .26 1.06 10 10 0 0 0 1.33-.38l1-.37.12.19a1.86 1.86 0 0 1 .13.39s0 .07-.09.09a17.38 17.38 0 0 1-2.28.68 9.71 9.71 0 0 0 .56 1.24 8 8 0 0 0 2.16-.88h.09a1.67 1.67 0 0 1 .27.6l-.06.06a10.49 10.49 0 0 1-2.12.84 9.81 9.81 0 0 0 1.54 1.88zm-.32-6l.09-.06c.15-.11.21-.14.26-.14a2.71 2.71 0 0 1 .77.73 1.85 1.85 0 0 1 .31.47 1 1 0 0 1-.45.38s-.06 0-.11-.09a4.15 4.15 0 0 0-.87-1.1.14.14 0 0 1-.06-.1s-.01-.06.03-.1zm1.29-.83a3.45 3.45 0 0 1 1 1.18c0 .07 0 .09-.25.25s-.15.1-.2.1 0 0-.09-.08a3.68 3.68 0 0 0-.88-1.1v-.06a.75.75 0 0 1 .39-.3zM108.92 33.93c-.64 1.45-1.36 2.18-2.19 2.18a1.52 1.52 0 0 1-1.24-.75 3.35 3.35 0 0 1-.44-1.78 4.23 4.23 0 0 1 1.77-3.49 4.79 4.79 0 0 1 2.83-.85c2.4 0 4 1.46 4 3.66a3.94 3.94 0 0 1-2 3.47 4.6 4.6 0 0 1-1.38.63c-.07 0-.11 0-.19-.13a1.4 1.4 0 0 0-.48-.42 5.85 5.85 0 0 0 1.73-.73 3.36 3.36 0 0 0 1.58-2.86 2.82 2.82 0 0 0-1.68-2.68 3.15 3.15 0 0 0-1.25-.29 14 14 0 0 1-1.06 4.04zm-1.23-3.58a3.57 3.57 0 0 0-1.93 3.27c0 1 .41 1.7 1 1.7s1-.55 1.44-1.61a13.48 13.48 0 0 0 1-3.77 3.79 3.79 0 0 0-1.51.41zM119.28 29.71a6.73 6.73 0 0 1-1.07 1.37 1.54 1.54 0 0 0-.54-.42 5.38 5.38 0 0 0 1.7-2.68l.72.19c-.2.46-.28.61-.46 1h1.77a5.13 5.13 0 0 0 .88-.05v.66h-1.58a12.38 12.38 0 0 1 .53 1.25l-.65.22a7.18 7.18 0 0 0-.53-1.47zm3.62 4.38a4.58 4.58 0 0 0 1.65 1.82 6.56 6.56 0 0 0 2.67.94 2.61 2.61 0 0 0-.43.69 7 7 0 0 1-2.94-1.34 5.2 5.2 0 0 1-1.47-1.86 4.49 4.49 0 0 1-1.48 2 7.34 7.34 0 0 1-2.64 1.16 2 2 0 0 0-.4-.65 8.75 8.75 0 0 0 1.78-.54 3.72 3.72 0 0 0 2.14-2.21h-2.84a8.27 8.27 0 0 0-1.09.06v-.76a6.63 6.63 0 0 0 1.09.07h3a6.45 6.45 0 0 0 .11-1.31c-.94.09-1.77.13-2.87.15a1.75 1.75 0 0 0-.26-.61h.6a26.76 26.76 0 0 0 3.84-.29 8.49 8.49 0 0 0 2-.47l.51.59-1.14.25a17.49 17.49 0 0 1-2 .3 7.32 7.32 0 0 1-.12 1.39h3.26a6.31 6.31 0 0 0 1.13-.07v.75a8.27 8.27 0 0 0-1.09-.06zm.41-4.36a7.3 7.3 0 0 1-.78 1.23 1.82 1.82 0 0 0-.57-.35 5.34 5.34 0 0 0 .85-1.29 4.92 4.92 0 0 0 .45-1.32l.7.18c-.14.39-.2.53-.39 1h2.68a5 5 0 0 0 .91-.06v.69a5.39 5.39 0 0 0-.9-.05h-1.4a8.91 8.91 0 0 1 .46.93l-.63.18a4.69 4.69 0 0 0-.5-1.11zM135 31.24a3.15 3.15 0 0 0 .84-.07v.69a6.25 6.25 0 0 0-.84 0h-2.75a24.3 24.3 0 0 1-.23 3.7 5.87 5.87 0 0 1-.56 1.76 2.24 2.24 0 0 0-.5-.58 4.78 4.78 0 0 0 .45-1.44 20.43 20.43 0 0 0 .21-3.11v-1a5.42 5.42 0 0 0 .95.06h1.54a7.23 7.23 0 0 0 .63-1.62l.57.22a14.13 14.13 0 0 1-.61 1.4zm-1.57-2.53a2.89 2.89 0 0 0-.06-.71h.75a3.35 3.35 0 0 0-.05.7v.3h.93a4.13 4.13 0 0 0 .84-.06v.69a3.91 3.91 0 0 0-.83-.06h-2.73a3.32 3.32 0 0 0-.78.06v-.7a3.39 3.39 0 0 0 .82.07h1.16zm2.47 6.66l-.34.29a9.1 9.1 0 0 1-3.28 1.79 2.43 2.43 0 0 0-.37-.59 7.7 7.7 0 0 0 2.55-1.11 3.69 3.69 0 0 0 .94-.83zm-3.17-4.24a5.36 5.36 0 0 0-.46-1.32l.55-.19a6.81 6.81 0 0 1 .45 1.3zm2.91 2.53l-.41.34a7.69 7.69 0 0 1-2.49 1.38 1.57 1.57 0 0 0-.37-.55 6.31 6.31 0 0 0 1.81-.79 3.27 3.27 0 0 0 .94-.8zm-.47-1.36l-.36.27a6.85 6.85 0 0 1-2 1 2.16 2.16 0 0 0-.36-.53 4.72 4.72 0 0 0 2.19-1.15zm2.45 3.84a6.61 6.61 0 0 1-2.28 1.52 2 2 0 0 0-.44-.53 5.35 5.35 0 0 0 1.29-.61 4.36 4.36 0 0 0 .94-.77zM137 29a5.93 5.93 0 0 0-1 .06v-.72a4.7 4.7 0 0 0 1 .07h2.58a4.76 4.76 0 0 0 1-.07v.72a5.93 5.93 0 0 0-1-.06h-1a8.1 8.1 0 0 1-.44 1.17h1.17a5.61 5.61 0 0 0 1-.05v5.46h-4.11v-4.45a6.82 6.82 0 0 0-.05-1h1.35a6.73 6.73 0 0 0 .4-1.17zm-.19 2.74h2.82v-1h-2.82zm0 1.6h2.82v-1.06h-2.82zm0 1.63h2.82v-1.09h-2.82zm2.16.78a6.66 6.66 0 0 0 1.94 1.37 2.87 2.87 0 0 0-.48.54 8.06 8.06 0 0 1-1.93-1.55zM146.89 30.86c.34-.39.56-.53.89-.53a.93.93 0 0 1 .59.19 6.44 6.44 0 0 1 .9.89 19.25 19.25 0 0 0 2.6 2.27 11.59 11.59 0 0 0 1.6 1c.07 0 .1.07.1.12a1.55 1.55 0 0 1-.3.59c-.08.11-.12.14-.16.14a8.6 8.6 0 0 1-1.74-1.13 22.17 22.17 0 0 1-3-2.79c-.29-.32-.41-.41-.55-.41s-.22.08-.41.3l-.24.28-.26.3-1.16 1.36c-.13.16-.22.27-.4.53a.21.21 0 0 1-.17.12c-.15 0-.48-.3-.76-.7a13.62 13.62 0 0 0 2.47-2.53zM157.87 35.13c.12-.13.14-.14.2-.14a5.38 5.38 0 0 1 1.28.92 6.1 6.1 0 0 1 1 1.28c0 .05 0 .1-.25.31s-.26.23-.31.23-.07 0-.11-.09a5.92 5.92 0 0 0-2-2.07.13.13 0 0 1-.07-.11s0-.06.26-.33zM170.31 30.65A12.11 12.11 0 0 1 174 30a3.55 3.55 0 0 1 2 .47 2.47 2.47 0 0 1 1 2.02 3.32 3.32 0 0 1-2 3 9.66 9.66 0 0 1-2.5.8 5.93 5.93 0 0 1-.62.09c-.1 0-.14 0-.19-.13a1.57 1.57 0 0 0-.39-.54 9 9 0 0 0 3.15-.83 2.67 2.67 0 0 0 1.7-2.39 1.88 1.88 0 0 0-2.1-1.9 10.28 10.28 0 0 0-3.57.76 7.35 7.35 0 0 0-1.59.74h-.1c-.07 0-.19-.12-.31-.31a3 3 0 0 1-.29-.65 10.18 10.18 0 0 0 2.12-.48zM182 31h-.62c-.15 0-.17 0-.19-.08a2.87 2.87 0 0 1-.1-.63h.61c.39 0 1.14-.06 1.72-.12a6.44 6.44 0 0 0 .34-2 4.72 4.72 0 0 1 .8.19c.16.05.18.07.18.13a.33.33 0 0 1-.07.16 5.57 5.57 0 0 0-.45 1.36 13.85 13.85 0 0 0 1.5-.33.16.16 0 0 1 .09 0c.07 0 .09.06.13.33v.17a.38.38 0 0 1 0 .1c0 .09 0 .11-.23.15h-.1c-.38.07-1.19.22-1.64.28a21.79 21.79 0 0 1-1.74 3.84c-.34.6-.54.86-.65.86s-.58-.34-.58-.44 0-.11.1-.2a5.32 5.32 0 0 0 .6-.86 14.38 14.38 0 0 0 1.47-3.09c-.65.11-.73.12-1.17.18zm5.23 1v.15a2.34 2.34 0 0 0-.08.7c0 .53 0 1.14.1 1.94a6.47 6.47 0 0 1 1.53.82c.38.26.49.36.49.44s-.29.61-.4.61-.08 0-.16-.11a5.74 5.74 0 0 0-1.43-1 2.17 2.17 0 0 1-.14.87 1.6 1.6 0 0 1-1.67.92c-1.07 0-1.78-.55-1.78-1.36s.79-1.52 1.88-1.52a3.9 3.9 0 0 1 1 .11 39.3 39.3 0 0 1-.11-2.11 4 4 0 0 0-.06-.71c.69.06.87.09.87.25zm-1.68 3.14c-.75 0-1.23.32-1.23.81s.4.74 1.07.74 1.13-.37 1.13-1.21a1.48 1.48 0 0 0 0-.16 2.38 2.38 0 0 0-.93-.22zm1.73-4.53c0-.05.06-.08.08-.13a.66.66 0 0 1 .18-.19h.06a5.74 5.74 0 0 1 2.08 1.23 1.44 1.44 0 0 1-.23.44c-.07.11-.07.11-.18.15a.42.42 0 0 1-.13-.07 5.79 5.79 0 0 0-1.85-1.15c-.06 0-.11-.07-.11-.12a.72.72 0 0 1 .14-.2zM195.22 29.79v.1a6.2 6.2 0 0 0-.15 1.77c0 2.63.49 4.35 1.23 4.35.48 0 1-.69 1.34-1.85a1.68 1.68 0 0 0 .35.67c0 .07.06.09.06.14a1.81 1.81 0 0 1-.18.52c-.41.86-1 1.34-1.57 1.34s-1.27-.61-1.61-1.78a14.52 14.52 0 0 1-.38-3.66V30.2a4.38 4.38 0 0 0 0-.77c.69.13.91.22.91.36zm5.24.84c.19 0 .78.69 1.17 1.42a7.14 7.14 0 0 1 .72 1.87 3.84 3.84 0 0 1 .11.54c0 .07 0 .11-.14.16a2.87 2.87 0 0 1-.6.19s-.07 0-.08-.09a6.22 6.22 0 0 0-1.76-3.79 1.65 1.65 0 0 1 .58-.3zM212.82 29.17A8.78 8.78 0 0 0 214 29h.08a.14.14 0 0 1 .14.09 2.7 2.7 0 0 1 .16.62c0 .1 0 .11-.23.11a4 4 0 0 0-1.89.48 4.24 4.24 0 0 0-2.2 3.58 2.34 2.34 0 0 0 1.75 2.24 4.2 4.2 0 0 0 1.21.28.11.11 0 0 1 .11.12 2 2 0 0 1-.12.62c0 .08-.06.11-.14.11a6.87 6.87 0 0 1-1.28-.33 3.06 3.06 0 0 1-2.27-3.07 4.29 4.29 0 0 1 1-2.7 5.37 5.37 0 0 1 1.3-1.15c-4 .69-4.59.81-5.11 1.05a.44.44 0 0 1-.19.05c-.1 0-.13 0-.21-.16a2.55 2.55 0 0 1-.27-.78 24 24 0 0 0 2.64-.32zm-.06 2.18l.09-.07c.15-.11.21-.14.26-.13a1.94 1.94 0 0 1 .59.53 3 3 0 0 1 .49.66s0 .07-.11.14a1.11 1.11 0 0 1-.34.24c-.05 0-.07 0-.11-.09a4.23 4.23 0 0 0-.87-1.1s-.07-.06-.07-.1.02-.05.07-.08zm2.32.35c0 .06 0 .09-.25.23s-.16.11-.2.11-.06 0-.09-.08a3.53 3.53 0 0 0-.88-1.1v-.06c0-.06.33-.3.41-.3a3.22 3.22 0 0 1 1.01 1.2zM220.34 29.79v.1a6.34 6.34 0 0 0-.14 1.77c0 2.63.48 4.35 1.23 4.35.47 0 1-.69 1.33-1.85a1.81 1.81 0 0 0 .35.67c.06.07.07.09.07.14a2 2 0 0 1-.19.52c-.4.86-1 1.34-1.56 1.34s-1.28-.61-1.62-1.78a14.59 14.59 0 0 1-.37-3.66V30.2a3.54 3.54 0 0 0-.06-.77c.74.13.96.22.96.36zm5.24.84c.2 0 .78.69 1.18 1.42a6.8 6.8 0 0 1 .71 1.87 2.75 2.75 0 0 1 .11.54c0 .07 0 .11-.14.16a2.81 2.81 0 0 1-.59.19s-.07 0-.08-.09a6.33 6.33 0 0 0-1.77-3.79 1.63 1.63 0 0 1 .58-.3zM236.77 28.8a.19.19 0 0 1-.12.17 2.19 2.19 0 0 0-.47.47 35 35 0 0 1-2.58 2.82.66.66 0 0 0-.23.47.57.57 0 0 0 .21.42c.84.76 1.79 1.73 2.56 2.59a5.62 5.62 0 0 1 .86 1.07c0 .08-.13.21-.39.41a.55.55 0 0 1-.26.14s-.07 0-.11-.08a19.1 19.1 0 0 0-3.17-3.6 1.27 1.27 0 0 1-.48-.94 1.12 1.12 0 0 1 .19-.61c.08-.14.08-.14.82-.9a22.57 22.57 0 0 0 1.91-2.3 4 4 0 0 0 .39-.8c.53.28.87.53.87.67zM247.13 36a1.65 1.65 0 1 1-1.65-1.65 1.64 1.64 0 0 1 1.65 1.65zm-2.67 0a1 1 0 1 0 1-1 1 1 0 0 0-1 1z"/><path d="M69.35 18.93c-1.41-6-6-11.68-10.95-15.14a23 23 0 0 0-20.18-2.55A17.4 17.4 0 0 0 31 5.87a14.64 14.64 0 0 0-3.36 6.53 9.45 9.45 0 0 0 1.06 6v-.1a8.08 8.08 0 0 1 .48-2.11c1.78-4.85 6.27-6.34 11.11-5.3 7.7 1.64 13.14 6.38 17.49 12.71 1.43 2.09 3.29 4.19 5.91 4.63a4.82 4.82 0 0 0 3.64-.79c2.42-1.76 2.67-5.82 2.02-8.51z" fill="#11338f"/><path class="cls-3" d="M41 11.15v.1a7.91 7.91 0 0 1-.48 2.1c-1.78 4.86-6.27 6.34-11.11 5.3C21.66 17 16.22 12.27 11.87 5.94 10.44 3.85 8.58 1.75 6 1.31a4.82 4.82 0 0 0-3.64.79C-.1 3.91-.33 8 .3 10.67c1.41 6 6 11.67 11 15.13a23 23 0 0 0 20.18 2.56 17.52 17.52 0 0 0 7.23-4.64A14.6 14.6 0 0 0 42 17.2a9.43 9.43 0 0 0-1-6.05zM79.22 8.62h2.13l4.79 9.46h.1L91 8.62h2V21h-2V10.85h-.07L85.83 21h-.42l-5.12-10h-.15v10h-.92zM99.51 20.47a3.51 3.51 0 0 0 .91-.13 2.63 2.63 0 0 0 .79-.38 1.89 1.89 0 0 0 .56-.6 1.54 1.54 0 0 0 .22-.83 1.84 1.84 0 0 0-.29-1 3.44 3.44 0 0 0-.77-.81 7.14 7.14 0 0 0-1.08-.72l-1.25-.65c-.42-.22-.84-.45-1.24-.69a6.83 6.83 0 0 1-1.08-.79 3.63 3.63 0 0 1-.77-1 2.65 2.65 0 0 1-.29-1.25 3.38 3.38 0 0 1 .26-1.32 3.07 3.07 0 0 1 .78-1.05 3.86 3.86 0 0 1 1.27-.69 5.3 5.3 0 0 1 1.71-.25 5.77 5.77 0 0 1 1.57.19 3.82 3.82 0 0 1 1.21.54 3.59 3.59 0 0 1 .88.9 5.11 5.11 0 0 1 .59 1.22l-1.07.5a5 5 0 0 0-.47-1 3.59 3.59 0 0 0-.69-.8 2.83 2.83 0 0 0-.93-.52 3.61 3.61 0 0 0-1.18-.18 2.88 2.88 0 0 0-1 .16 2.17 2.17 0 0 0-.73.43 1.79 1.79 0 0 0-.6 1.25 1.45 1.45 0 0 0 .3.89 3.87 3.87 0 0 0 .79.77 9 9 0 0 0 1.12.69l1.28.68c.43.23.86.47 1.28.72a6.91 6.91 0 0 1 1.11.81 4 4 0 0 1 .79 1 2.35 2.35 0 0 1 .3 1.18 3.33 3.33 0 0 1-.28 1.37 3.16 3.16 0 0 1-.83 1.13 4.13 4.13 0 0 1-1.39.76 6.73 6.73 0 0 1-3.51.09 4 4 0 0 1-1.24-.57 4.18 4.18 0 0 1-.92-.91 5.47 5.47 0 0 1-.62-1.26l1.12-.45a4.16 4.16 0 0 0 .51 1.1 3.66 3.66 0 0 0 .77.8 3.46 3.46 0 0 0 1 .51 3.58 3.58 0 0 0 1.11.16zM113.34 14.83a6.49 6.49 0 0 0 .39 2.32 5.21 5.21 0 0 0 1.07 1.75 4.73 4.73 0 0 0 1.62 1.1 5.34 5.34 0 0 0 2 .38 3.36 3.36 0 0 0 1.25-.25 4.92 4.92 0 0 0 1.13-.66 6.16 6.16 0 0 0 .92-.92 6.31 6.31 0 0 0 .68-1l.86.56a7.23 7.23 0 0 1-.9 1.2 5.64 5.64 0 0 1-1.2 1 6.21 6.21 0 0 1-1.54.71 6.37 6.37 0 0 1-1.92.26 7.37 7.37 0 0 1-2.79-.51 6.48 6.48 0 0 1-2.15-1.39 6.08 6.08 0 0 1-1.38-2.05 6.26 6.26 0 0 1-.49-2.47 6.41 6.41 0 0 1 .88-3.23 6.26 6.26 0 0 1 2.4-2.35 6.94 6.94 0 0 1 1.68-.67 7.66 7.66 0 0 1 1.95-.24 6.08 6.08 0 0 1 3.33 1 6.74 6.74 0 0 1 1.22 1 8.25 8.25 0 0 1 .91 1.2l-.89.6a6.14 6.14 0 0 0-1.74-2.2 3.65 3.65 0 0 0-2.2-.69 5.31 5.31 0 0 0-2 .38 4.67 4.67 0 0 0-1.62 1.12 5.14 5.14 0 0 0-1.09 1.76 6.38 6.38 0 0 0-.38 2.29zM132.12 21.25a6.85 6.85 0 0 1-1.83-.23 7.32 7.32 0 0 1-1.63-.66 6.77 6.77 0 0 1-2.44-2.36 6 6 0 0 1-.67-1.56 6.23 6.23 0 0 1-.24-1.73 6 6 0 0 1 .53-2.49 6.36 6.36 0 0 1 1.44-2 6.67 6.67 0 0 1 2.16-1.36 7.18 7.18 0 0 1 2.68-.5 7.28 7.28 0 0 1 1.83.23 6.67 6.67 0 0 1 1.63.64 6.38 6.38 0 0 1 1.37 1 6.22 6.22 0 0 1 1.74 2.77 6.34 6.34 0 0 1 .23 1.7 6.62 6.62 0 0 1-.23 1.73A6.41 6.41 0 0 1 138 18a6.34 6.34 0 0 1-1 1.33 6.56 6.56 0 0 1-1.37 1A7.13 7.13 0 0 1 134 21a6.85 6.85 0 0 1-1.88.25zm0-.62a3.8 3.8 0 0 0 1.87-.44 4 4 0 0 0 1.36-1.19 5.68 5.68 0 0 0 .85-1.88 9.26 9.26 0 0 0 .28-2.36 9 9 0 0 0-.28-2.33 5.42 5.42 0 0 0-.85-1.83A4 4 0 0 0 134 9.37a4 4 0 0 0-1.88-.37 4.12 4.12 0 0 0-1.9.42 4 4 0 0 0-1.37 1.19 5.8 5.8 0 0 0-.83 1.83 9 9 0 0 0-.28 2.33 9.26 9.26 0 0 0 .28 2.36 6.1 6.1 0 0 0 .83 1.88 4 4 0 0 0 1.37 1.23 3.89 3.89 0 0 0 1.9.39zM141.48 8.62h4.27a7.15 7.15 0 0 1 2 .24 4.05 4.05 0 0 1 1.4.67 2.7 2.7 0 0 1 .84 1 3 3 0 0 1 .28 1.29 2.82 2.82 0 0 1-.21 1.09 3 3 0 0 1-.62.9 4 4 0 0 1-1 .7 4.94 4.94 0 0 1-1.24.45l4.49 6h-2.4l-4.29-5.8h-1.46V21h-2.08zm2.08 5.92h1.2a4.06 4.06 0 0 0 1.29-.19 3.27 3.27 0 0 0 1-.52 2.37 2.37 0 0 0 .68-.83 2.44 2.44 0 0 0 .24-1.1 2.79 2.79 0 0 0-.19-1 2.21 2.21 0 0 0-.55-.79 2.39 2.39 0 0 0-.82-.52 3 3 0 0 0-1.05-.19h-1.82zM153.24 8.62h3.91a6.55 6.55 0 0 1 1.81.23 4.54 4.54 0 0 1 1.47.69 3.16 3.16 0 0 1 1 1.1 3 3 0 0 1 .37 1.51 3 3 0 0 1-.35 1.47 3.1 3.1 0 0 1-.92 1 3.8 3.8 0 0 1-1.3.61 5.36 5.36 0 0 1-1.49.21h-1.35l-.61-.07a3.59 3.59 0 0 1-.45-.07V21h-2.08zm2.08 5.93c.23.07.48.13.75.19a3.75 3.75 0 0 0 .82.09 3.05 3.05 0 0 0 1.17-.21 2.3 2.3 0 0 0 .83-.54 2.25 2.25 0 0 0 .5-.81 3 3 0 0 0 .16-1 2.92 2.92 0 0 0-.21-1.13 2.68 2.68 0 0 0-.59-.87 2.57 2.57 0 0 0-.88-.55 2.92 2.92 0 0 0-1.08-.19h-1.47zM169.88 21.25a6.85 6.85 0 0 1-1.83-.23 7.4 7.4 0 0 1-1.64-.66 6.56 6.56 0 0 1-1.37-1A6.34 6.34 0 0 1 164 18a6.41 6.41 0 0 1-.68-1.56 6.62 6.62 0 0 1-.23-1.73 5.94 5.94 0 0 1 .52-2.49 6.55 6.55 0 0 1 1.45-2 6.67 6.67 0 0 1 2.16-1.36 7.18 7.18 0 0 1 2.68-.5 7.28 7.28 0 0 1 1.83.23 6.83 6.83 0 0 1 1.63.64 6.38 6.38 0 0 1 1.37 1 6.17 6.17 0 0 1 1.06 1.29 5.83 5.83 0 0 1 .67 1.53 6 6 0 0 1 .24 1.7 6.23 6.23 0 0 1-.24 1.73 6 6 0 0 1-.67 1.56 6.34 6.34 0 0 1-1.06 1.32 6.56 6.56 0 0 1-1.37 1 7.32 7.32 0 0 1-1.63.66 6.85 6.85 0 0 1-1.85.23zm0-.62a3.76 3.76 0 0 0 1.86-.44 3.93 3.93 0 0 0 1.37-1.19 5.88 5.88 0 0 0 .84-1.88 9.25 9.25 0 0 0 .29-2.36 9 9 0 0 0-.29-2.33 5.6 5.6 0 0 0-.84-1.83 3.92 3.92 0 0 0-1.37-1.19 4 4 0 0 0-1.86-.41 4.09 4.09 0 0 0-1.9.42 4 4 0 0 0-1.37 1.19 5.59 5.59 0 0 0-.83 1.83 9 9 0 0 0-.28 2.33 9.26 9.26 0 0 0 .28 2.36 5.87 5.87 0 0 0 .83 1.88 4 4 0 0 0 1.39 1.18 3.86 3.86 0 0 0 1.88.44zM179.24 8.62h4.27a7.25 7.25 0 0 1 2 .24 4.14 4.14 0 0 1 1.4.67 2.79 2.79 0 0 1 .84 1 3 3 0 0 1 .28 1.29 2.66 2.66 0 0 1-.22 1.09 2.81 2.81 0 0 1-.61.9 4.09 4.09 0 0 1-1 .7 4.73 4.73 0 0 1-1.2.49l4.49 6h-2.4l-4.29-5.8h-1.45V21h-2.08zm2.08 5.92h1.2a4.15 4.15 0 0 0 1.29-.19 3.27 3.27 0 0 0 1-.52 2.49 2.49 0 0 0 .68-.83 2.44 2.44 0 0 0 .24-1.1 2.6 2.6 0 0 0-.2-1 2.06 2.06 0 0 0-.54-.79 2.49 2.49 0 0 0-.82-.52 3 3 0 0 0-1.05-.19h-1.82zM196 8.34L201.77 21h-2.1l-1.89-4.12h-5.29l-2 4.12h-1l5.94-12.62zm-3.11 7.71h4.54l-2.23-4.89zM213.18 8.62v.79h-4.47V21h-2.08V9.41h-4.47v-.79zM215.08 8.62h2.08V21h-2.08zM226.54 21.25a6.85 6.85 0 0 1-1.83-.23 7.4 7.4 0 0 1-1.64-.66 6.89 6.89 0 0 1-1.38-1 6.63 6.63 0 0 1-1.05-1.36 6.05 6.05 0 0 1-.68-1.56 6.23 6.23 0 0 1-.23-1.73 5.94 5.94 0 0 1 .52-2.49 6.36 6.36 0 0 1 1.44-2 6.67 6.67 0 0 1 2.16-1.36 7.23 7.23 0 0 1 2.69-.5 7.4 7.4 0 0 1 1.83.23 7 7 0 0 1 1.63.64 6.38 6.38 0 0 1 1.37 1 6.5 6.5 0 0 1 1.06 1.29 6.18 6.18 0 0 1 .67 1.48 6 6 0 0 1 .24 1.7 6.23 6.23 0 0 1-.24 1.73 6.39 6.39 0 0 1-.67 1.56 6.68 6.68 0 0 1-1.06 1.32 6.56 6.56 0 0 1-1.37 1 7.52 7.52 0 0 1-1.63.66 7 7 0 0 1-1.83.28zm0-.62a3.76 3.76 0 0 0 1.86-.44 4 4 0 0 0 1.37-1.19 5.88 5.88 0 0 0 .84-1.88 9.25 9.25 0 0 0 .29-2.36 9 9 0 0 0-.29-2.33 5.6 5.6 0 0 0-.84-1.83 3.81 3.81 0 0 0-3.23-1.6 4.06 4.06 0 0 0-1.9.42 3.92 3.92 0 0 0-1.37 1.19 5.39 5.39 0 0 0-.83 1.83 9 9 0 0 0-.28 2.33 9.26 9.26 0 0 0 .28 2.36 5.66 5.66 0 0 0 .83 1.88 3.93 3.93 0 0 0 1.37 1.23 3.84 3.84 0 0 0 1.9.39zM235.9 8.62h1.16l8.09 9h.08v-9h.91v12.63h-.48l-8.76-10h-.07V21h-.93z"/></g></g></svg>