<?xml version="1.0" encoding="UTF-8"?>
<svg width="135px" height="31px" viewBox="0 0 135 31" version="1.1" xmlns="http://www.w3.org/2000/svg" xmlns:xlink="http://www.w3.org/1999/xlink">
    <title>Fill 1</title>
    <g id="トップページ" stroke="none" stroke-width="1" fill="none" fill-rule="evenodd">
        <g id="srush-index-pc" transform="translate(-40.000000, -24.000000)" fill="#1a1a1a">
            <g id="Group-3" transform="translate(39.999954, 23.999601)">
                <path d="M42.0418114,8.37705257 C41.9519824,8.34810768 41.9020774,8.31816468 41.8521724,8.31816468 C39.7641474,8.31417228 37.6761223,8.30518938 35.5880973,8.32714758 C35.4473652,8.32814568 35.2178023,8.53674856 35.1818707,8.68546545 C34.7277352,10.5878439 34.3025446,12.497209 33.8653769,14.4025818 C32.8083891,19.0128053 31.7474089,23.6210326 30.690421,28.2312561 C30.5746415,28.7382908 30.4808201,29.2503161 30.3710291,29.7842995 L37.1022149,29.7842995 C37.1481275,29.6605351 37.203023,29.549746 37.2299717,29.4319702 C37.5274055,28.1314461 37.8198487,26.8309219 38.1142882,25.5303977 C38.8528821,22.2706034 39.5864856,19.009811 40.3440434,15.754009 C40.3889579,15.5583815 40.5915722,15.3128489 40.7752226,15.2509667 C42.0967069,14.804816 43.4561189,14.485424 44.8564531,14.5243499 C46.1170533,14.5582853 47.3736611,14.7060041 48.6322651,14.7968312 C48.8857825,14.814797 49.1692428,14.9116127 49.261068,14.5083803 C49.7062206,12.5501083 50.1643485,10.5938325 50.6214782,8.63755665 C50.6883509,8.35409628 50.5735694,8.22134899 50.2980938,8.23632049 C49.2870186,8.29121598 48.2569795,8.25129198 47.2698587,8.43693857 C45.2676703,8.81122604 43.5908624,9.92211124 41.9310223,11.0369888 C41.7673339,11.1467798 41.6016493,11.2525784 41.3351566,11.4262478 C41.5936645,10.3103721 41.8172389,9.34520949 42.0418114,8.37705257 L42.0418114,8.37705257 Z M103.679472,9.2044774 C103.435935,9.10267121 103.245298,9.00585552 103.043682,8.93898283 C98.7308921,7.50970375 94.3572183,7.20927568 89.9396281,8.35309818 C87.9224682,8.87410633 86.1049282,9.81032405 84.7754592,11.4911243 C82.3291163,14.5842359 83.1665221,18.4468826 86.7307369,20.0867608 C88.1570217,20.7425124 89.7200461,21.1038246 91.227177,21.5759258 C92.2442408,21.8943197 93.2942419,22.1188922 94.2923418,22.486193 C95.162685,22.806583 95.4491396,23.6389984 95.0638731,24.4075353 C94.7704317,24.9924218 94.2394425,25.2868613 93.6465712,25.463525 C91.9358279,25.9705597 90.188155,25.9595807 88.4554535,25.6681355 C86.3983696,25.3217948 84.4600596,24.6400926 82.8002194,23.3046349 C82.5706564,23.1189883 82.2412835,23.0571061 81.9238877,22.9233607 C81.4627655,24.9305396 81.037575,26.7800188 80.6123844,28.6324922 C80.7221754,28.6953725 80.7940386,28.7482718 80.8748847,28.7822072 C81.1204173,28.8850115 81.3639537,28.9958006 81.617471,29.0786429 C84.7704687,30.1096801 88.0122972,30.5139106 91.3160079,30.3322564 C93.3142039,30.2234635 95.2864493,29.9100601 97.1339323,29.0786429 C99.5633075,27.9857235 101.394821,26.3917579 101.828994,23.57512 C102.174337,21.3353838 101.372863,19.4350015 99.3437255,18.430913 C98.0322222,17.78115 96.5989507,17.3629461 95.1986166,16.9118049 C93.8970943,16.4936011 92.5586423,16.1921749 91.2501333,15.793933 C90.7500852,15.6412237 90.3318814,15.3208337 90.1771759,14.7618977 C89.9605882,13.9813836 90.3219004,13.175917 91.2221865,12.8445478 C92.0136797,12.5531026 92.865059,12.3395092 93.7034629,12.2796232 C96.5879716,12.0740147 99.248906,12.7856599 101.646342,14.4265361 C102.14639,14.7678863 102.390925,14.6740649 102.534651,14.0732088 C102.919917,12.4682641 103.291211,10.8593271 103.679472,9.2044774 L103.679472,9.2044774 Z M63.3222996,8.36806967 C63.1496283,8.34311718 63.046824,8.31417228 62.9430216,8.31417228 C60.9248636,8.31117798 58.9067056,8.32115898 56.8885476,8.30119698 C56.513262,8.29720458 56.4473874,8.50480936 56.3855052,8.77529444 C55.7018068,11.7945467 55.0021387,14.8108046 54.3403985,17.8350474 C53.8643048,20.0059147 53.3173461,22.1717915 53.0229066,24.3696075 C52.7065089,26.73211 53.5568901,28.6484618 55.5451051,29.6355826 C56.4713418,30.0957067 57.4574645,30.3073039 58.481515,30.3592051 C60.8120783,30.4759828 62.8991053,29.7264097 64.8613697,28.5446594 C65.4372733,28.1973207 66.0071884,27.8400009 66.7068564,27.4088217 C66.5291946,28.2741743 66.3774835,29.0077778 66.2207818,29.7663337 L73.0068631,29.7663337 C74.6437469,22.6199383 76.272646,15.5054822 77.920509,8.31017988 C77.6160885,8.31017988 77.4224571,8.31017988 77.2298238,8.31017988 C75.4082915,8.31017988 73.585761,8.33712858 71.7652268,8.29421028 C71.2272509,8.28223308 71.0635625,8.49482836 70.9587621,8.95495242 C69.9317172,13.5022956 68.870737,18.041654 67.8766295,22.5959839 C67.7129411,23.3435608 67.4175036,23.825643 66.7018659,24.0512136 C66.6519609,24.0671832 66.6060483,24.0971262 66.5571414,24.1200825 C65.0400296,24.8107676 63.4939728,25.2958442 61.8021934,24.8317277 C60.9967268,24.6111477 60.4717263,24.0871452 60.418827,23.2627147 C60.3729144,22.557058 60.3349866,21.8204603 60.4797111,21.1367619 C61.1863658,17.7951234 61.9539046,14.4664601 62.7004834,11.1328064 C62.9050939,10.219545 63.1117005,9.30628359 63.3222996,8.36806967 L63.3222996,8.36806967 Z M28.1482606,2.61502177 C27.8677945,2.49924218 27.6412258,2.39843409 27.4096666,2.3125975 C25.5801495,1.63189336 23.6827616,1.24762489 21.7514382,1.00209231 C18.6892677,0.612833347 15.6310896,0.589877049 12.5918753,1.1827484 C9.97286114,1.69377555 7.57342895,2.68189447 5.68003341,4.6471532 C3.4722364,6.9377925 2.86738786,10.7255817 4.28868213,13.316649 C5.20294165,14.984474 6.68711623,16.0015378 8.39885758,16.6493047 C10.3102189,17.3729271 12.2864567,17.921882 14.2157839,18.5965976 C15.3047109,18.9768737 16.3896455,19.3960756 17.4126979,19.9230724 C17.8408828,20.1436525 18.2381265,20.6367138 18.4147902,21.0958398 C18.8928801,22.3384742 18.1752462,23.7318216 16.8118417,24.3716037 C15.625101,24.9285434 14.3495293,25.0293515 13.057988,25.0692755 C10.3760935,25.1511197 7.78103373,24.7718418 5.39258064,23.5092454 C4.33060233,22.9483132 3.36743591,22.1927516 2.3783189,21.4970759 C1.91120814,21.167703 1.39918288,21.1996422 1.30536149,21.6368099 C0.873184229,23.6549679 0.450987966,25.6751222 0.0198088031,27.6932802 C-0.0420733915,27.9847254 0.0347803018,28.1534043 0.339200775,28.2532143 C1.35227219,28.5875777 2.3463797,28.9828253 3.36743591,29.2872458 C6.55337084,30.2364388 9.82913475,30.3691861 13.1188721,30.2274559 C15.4234848,30.128644 17.693164,29.769328 19.8400769,28.8630533 C23.167742,27.4567305 25.4713566,25.2299696 25.8386574,21.4242146 C26.0941709,18.7772537 25.2647499,16.652299 22.9641296,15.2030579 C20.8860856,13.8935508 18.5365584,13.2897003 16.2169742,12.5900323 C14.8076571,12.1658398 13.4123134,11.6598032 12.0728634,11.0529584 C10.3830802,10.2874158 10.6785178,8.0456834 11.7245265,7.28712747 C12.2365517,6.9168324 12.808463,6.57747843 13.4053267,6.38883755 C15.5492454,5.7151201 17.7390766,5.7989605 19.9119401,6.22415106 C22.1117523,6.65333402 24.1199293,7.53665245 25.8686004,8.96692962 C26.3077643,9.32624559 26.7459302,9.2364166 26.8457402,8.77130204 C27.2809117,6.73717442 27.7071004,4.70105059 28.1482606,2.61502177 L28.1482606,2.61502177 Z M113.594596,0 C111.328909,9.91911694 109.067215,19.8262567 106.788553,29.8022653 C107.075007,29.8022653 107.250673,29.8022653 107.426339,29.8022653 C109.301768,29.8022653 111.1762,29.819233 113.050632,29.7872938 C113.416934,29.7813052 113.827153,29.6635294 114.137562,29.469898 C116.118791,28.2352485 118.065086,26.9427091 120.053301,25.7200367 C120.554347,25.4116238 120.543368,25.1261672 120.333767,24.6810147 C119.817749,23.5821067 118.768746,23.1179902 117.302537,23.3725057 C116.505055,23.5112416 115.70957,23.655966 114.91608,23.7976962 C114.902107,23.725833 114.892126,23.7068691 114.896118,23.6908995 C115.619741,20.718558 116.341367,17.7462165 117.073972,14.7768692 C117.108906,14.6391314 117.215703,14.4744449 117.335475,14.4105666 C118.875543,13.586136 120.456533,12.9293863 122.270081,13.1080462 C123.609531,13.2407935 124.196413,13.7039118 124.329161,15.0273923 C124.400026,15.7250641 124.3611,16.4616619 124.213381,17.1473565 C123.503732,20.4510672 122.739187,23.7428007 121.995603,27.0385267 C121.792989,27.9358185 121.594367,28.8341084 121.390754,29.7503641 C121.521506,29.7753166 121.589376,29.799271 121.657247,29.799271 C123.764236,29.8012672 125.871225,29.8042615 127.977216,29.7972748 C128.130923,29.7972748 128.3006,29.7533584 128.433347,29.6775028 C130.556306,28.4717981 132.67627,27.262101 134.785255,26.0324419 C134.913012,25.9575845 135.021805,25.6920899 134.996853,25.5383825 C134.761301,24.0532098 133.63245,23.2617166 132.037486,23.4743119 C131.249985,23.5791124 130.472466,23.7547779 129.623083,23.9094834 C129.722893,23.4543499 129.826695,23.0121916 129.917522,22.5680371 C130.518378,19.6416082 131.219044,16.7321469 131.685157,13.7847579 C132.092382,11.2106582 130.93259,8.83218613 128.162862,8.01274611 C126.548935,7.53565435 124.922032,7.55761255 123.30511,7.97881071 C121.554443,8.43494237 120.051304,9.40509548 118.540181,10.3512942 C118.40444,10.4371308 118.261711,10.5129864 117.998213,10.6646976 C118.831626,7.01963669 119.629108,3.52928129 120.435573,0 L113.594596,0 Z" id="Fill-1"></path>
            </g>
        </g>
    </g>
</svg>