<?xml version="1.0" encoding="utf-8"?>
<!-- Generator: Adobe Illustrator 23.0.4, SVG Export Plug-In . SVG Version: 6.00 Build 0)  -->
<svg version="1.1" id="レイヤー_1" xmlns="http://www.w3.org/2000/svg" xmlns:xlink="http://www.w3.org/1999/xlink" x="0px"
	 y="0px" viewBox="0 0 284.6 135.6" style="enable-background:new 0 0 284.6 135.6;" xml:space="preserve">
<style type="text/css">
	.st0{fill:#008CCF;}
	.st1{fill:#FFFFFF;}
</style>
<title>アセット 1</title>
<g>
	<g id="レイヤー_1-2">
		<polygon class="st0" points="0,23.2 142.3,1.4 284.6,23.2 284.6,112.8 142.3,134.6 0,112.8 		"/>
		<polygon class="st1" points="117,61.6 110.2,48 103.9,48 103.9,89.9 110.2,89.9 110.2,61.1 117,74.7 123.8,61.1 123.8,89.9 
			130.1,89.9 130.1,48 123.8,48 		"/>
		<path class="st1" d="M84.8,78.7c0,1.1-0.3,2.3-0.9,3.2c-1.4,2.5-4.6,3.4-7.1,2c-0.6-0.4-1.2-0.8-1.6-1.4c-0.8-1.1-1.3-2.4-1.2-3.8
			V48h-6.8v30.3c-0.1,2.5,0.7,5,2.1,7.2c2.2,3.3,5.9,5.3,9.9,5.2c2.1,0,4.2-0.5,6.1-1.5c1.8-1,3.3-2.4,4.4-4.1
			c1.3-2,1.9-4.4,1.9-6.7V48h-6.8V78.7z"/>
		<rect x="143.4" y="61.6" class="st1" width="7" height="28.3"/>
		<polygon class="st1" points="161.9,54.4 171.1,54.4 171.1,89.9 177.9,89.9 177.9,54.4 187.4,54.4 187.4,48 161.9,48 		"/>
		<path class="st1" d="M248.7,70.3l-1.2-1.1L237.3,62l-1.1-0.9c-0.8-0.9-1.3-2-1.3-3.3c0-1.1,0.4-2.2,1.1-3c0.9-1.1,2.2-1.7,3.6-1.7
			c1.4,0,2.8,0.6,3.7,1.7c0.8,0.8,1.2,1.8,1.2,2.9v0.7h6.6v-0.7c-0.1-2.4-0.9-4.8-2.4-6.8c-2-3-5.4-4.7-9-4.7
			c-2.7,0-5.3,0.9-7.4,2.7c-2.7,2.1-4.3,5.4-4.2,8.9c0,2.9,1.1,5.7,3.1,7.8c0.5,0.5,1,0.9,1.5,1.3c1.6,1.2,4.5,3.2,8.1,5.5
			c1,0.7,2,1.4,2.9,2.2l0.3,0.3c0.7,0.9,1.1,2.1,1.1,3.2c0,1.4-0.5,2.7-1.4,3.8c-2,2.2-5.4,2.4-7.7,0.4c-0.3-0.2-0.5-0.5-0.7-0.8
			c-0.7-1-1.1-2.3-1.1-3.5v-0.6h-6.8v0.7c-0.2,3.9,1.7,7.6,4.9,9.8c2.1,1.6,4.7,2.5,7.4,2.6c3.2,0,6.3-1.3,8.6-3.6
			c2.3-2.2,3.6-5.3,3.5-8.5C251.9,75.5,250.8,72.5,248.7,70.3"/>
		<path class="st1" d="M52.8,69.3L42.5,62l-1.1-0.9c-0.8-0.9-1.3-2-1.3-3.3c0-1.1,0.4-2.2,1.2-3c0.9-1.1,2.2-1.7,3.6-1.7
			c1.4,0,2.8,0.6,3.7,1.7c0.8,0.8,1.2,1.8,1.2,2.9v0.7h6.6v-0.7C56.3,55.3,55.4,53,54,51c-2-3-5.4-4.7-9-4.7c-2.7,0-5.3,0.9-7.4,2.7
			c-2.7,2.1-4.3,5.4-4.2,8.9c0,2.9,1.1,5.7,3,7.8c0.5,0.5,1,0.9,1.6,1.3c1.6,1.2,4.5,3.2,8.1,5.5c1,0.7,2,1.4,2.9,2.2l0.3,0.3
			c0.7,0.9,1.1,2.1,1.1,3.2c0,1.4-0.5,2.7-1.4,3.8c-2,2.2-5.4,2.4-7.7,0.4c-0.3-0.2-0.5-0.5-0.7-0.8c-0.7-1-1.1-2.3-1.1-3.5v-0.6
			h-6.8v0.7c-0.1,3.9,1.7,7.6,4.9,9.8c2.1,1.6,4.7,2.5,7.4,2.6c3.2,0,6.3-1.3,8.6-3.6c2.3-2.2,3.6-5.3,3.5-8.5c0.1-3-1-6-3.1-8.2
			L52.8,69.3z"/>
		<path class="st1" d="M208.6,48h-6.5L192,89.9h6.4l1.2-5.1h12l1.2,5.1h6.5L209.3,48H208.6z M201.3,78.5l4.5-18.5l4.5,18.6
			L201.3,78.5z"/>
		<path class="st1" d="M146.9,47.4c-2.6,0-4.7,2.1-4.7,4.7c0,2.6,2.1,4.7,4.7,4.7c2.6,0,4.7-2.1,4.7-4.7l0,0
			C151.6,49.5,149.5,47.4,146.9,47.4"/>
	</g>
</g>
</svg>
